<?xml version="1.0" encoding="utf-8"?>
<svg version="1.1" id="Layer_1" xmlns="http://www.w3.org/2000/svg" xmlns:xlink="http://www.w3.org/1999/xlink" x="0px" y="0px"
	 viewBox="0 0 249 247" style="enable-background:new 0 0 249 247;" xml:space="preserve">
<path class="st0" d="M245.7,56.1l0-9.9c0-22.7-18.4-41-41-41l-160.2,0c-22.7,0-41,18.4-41,41l0,9.9c0,11,4.3,21,11.4,28.4
	c1.5,1.5,1.5,4,0,5.5c-7.1,7.4-11.4,17.4-11.4,28.4l0,9.9c0,11,4.3,21,11.4,28.4c1.5,1.5,1.5,4,0,5.5c-7.1,7.4-11.4,17.4-11.4,28.4
	l0,10.1c0,22.7,18.4,41,41,41l160.2,0c22.7,0,41-18.4,41-41l0-10.1c0-11-4.3-21-11.4-28.4c-1.5-1.5-1.5-4,0-5.5
	c7.1-7.4,11.4-17.4,11.4-28.4l0-9.9c0-11-4.3-21-11.4-28.4c-1.5-1.5-1.5-4,0-5.5C241.3,77.1,245.7,67.1,245.7,56.1z"/>
</svg>
